#!OML:ASF F:\VICON\USERDATA\INSTALL\rory3\rory3.ASF
:FULLY-SPECIFIED
:DEGREES
3418
root 4.84611 14.1643 10.7662 -554.008 -77.9672 550.179
lowerback 20.9545 2.62939 -6.63931
upperback -0.71324 2.13597 2.83262
thorax -13.0263 1.54406 6.35443
lowerneck -11.2721 -5.55284 -1.86421
upperneck 17.8588 -8.14724 3.21473
head 7.5621 -3.81457 0.536005
rclavicle -1.11816e-016 -6.75868e-015
rhumerus -6.26343 -31.2797 -86.583
rradius 20.3475
rwrist -37.8715
rhand -10.1125 9.73067
rfingers 7.12502
rthumb 15.8753 -19.6386
lclavicle -1.11816e-016 -6.75868e-015
lhumerus -12.5815 -15.0977 86.0066
lradius 43.8554
lwrist 60.6739
lhand 6.72526 23.6281
lfingers 7.12502
lthumb 32.0141 50.8312
rfemur -44.2889 14.2398 4.51293
rtibia 58.937
rfoot -14.1071 8.6945
rtoes -27.7369
lfemur -33.4003 0.728991 -28.3985
ltibia 70.0242
lfoot -29.5161 1.15325
ltoes 26.1212
3419
root 4.84471 14.1574 10.7674 -553.825 -78.0421 550.074
lowerback 21.0209 2.57893 -6.64733
upperback -0.77741 2.05626 2.77267
thorax -13.1234 1.51157 6.31635
lowerneck -11.4021 -5.47352 -1.8947
upperneck 17.9107 -8.06086 3.35237
head 7.60736 -3.75996 0.589476
rclavicle -1.54058e-015 3.27995e-015
rhumerus -6.27554 -28.6476 -87.2959
rradius 19.9537
rwrist -38.7925
rhand -10.6024 10.529
rfingers 7.12502
rthumb 15.4035 -18.8772
lclavicle -1.54058e-015 3.27995e-015
lhumerus -12.0834 -16.8155 86.4808
lradius 44.1595
lwrist 61.0204
lhand 6.2758 23.9429
lfingers 7.12502
lthumb 31.5861 51.231
rfemur -43.7589 14.4268 4.22758
rtibia 59.0483
rfoot -14.4889 9.02084
rtoes -25.7629
lfemur -33.4585 0.507427 -28.5514
ltibia 70.0131
lfoot -29.5935 2.2728
ltoes 24.325
3420
root 4.84616 14.161 10.7753 -554.522 -78.3062 550.603
lowerback 21.388 2.52956 -6.40691
upperback -0.745732 2.01971 2.73239
thorax -13.2785 1.47868 6.14159
lowerneck -11.3853 -5.42763 -1.61016
upperneck 17.6817 -7.99138 3.15481
head 7.5068 -3.72711 0.491615
rclavicle 3.78933e-015 2.66371e-014
rhumerus -6.13671 -27.8227 -87.9439
rradius 19.49
rwrist -37.7258
rhand -10.3474 10.5397
rfingers 7.12502
rthumb 15.6491 -18.8474
lclavicle 3.78933e-015 2.66371e-014
lhumerus -11.5674 -18.978 87.0283
lradius 44.5471
lwrist 61.6316
lhand 5.62564 23.7763
lfingers 7.12502
lthumb 30.9665 51.1842
rfemur -42.7682 14.0089 4.17352
rtibia 59.0611
rfoot -15.4856 9.23601
rtoes -29.6964
lfemur -33.328 0.223335 -28.53
ltibia 70.0696
lfoot -29.5391 1.37121
ltoes 26.5871
3421
root 4.84745 14.1556 10.7741 -554.788 -78.3779 550.844
lowerback 21.542 2.5606 -6.21994
upperback -0.713393 2.09281 2.69625
thorax -13.3308 1.49689 5.96611
lowerneck -11.7349 -5.42987 -1.95629
upperneck 17.8163 -7.97887 3.41372
head 7.63844 -3.71043 0.619611
rclavicle -3.047e-014 -9.24349e-015
rhumerus -5.84625 -27.1025 -88.5767
rradius 18.8896
rwrist -36.873
rhand -10.1536 10.6704
rfingers 7.12502
rthumb 15.8357 -18.702
lclavicle -3.047e-014 -9.24349e-015
lhumerus -10.9503 -20.6161 87.5925
lradius 44.7607
lwrist 61.8604
lhand 5.92139 24.0466
lfingers 7.12502
lthumb 31.2484 51.4004
rfemur -42.1804 14.1723 4.02211
rtibia 59.1791
rfoot -16.4462 8.8971
rtoes -30.3581
lfemur -33.3065 0.115922 -28.593
ltibia 70.0683
lfoot -29.6674 2.37573
ltoes 23.6836
3422
root 4.84608 14.1602 10.7738 -554.417 -78.3515 550.547
lowerback 21.547 2.58294 -6.44947
upperback -0.734043 2.07445 2.77762
thorax -13.3693 1.51132 6.20041
lowerneck -11.7366 -5.30991 -1.92822
upperneck 17.6835 -7.77084 3.24364
head 7.58048 -3.62459 0.584109
rclavicle 5.60324e-015 9.14409e-015
rhumerus -5.90009 -22.0802 -89.019
rradius 18.7545
rwrist -39.3805
rhand -10.6155 10.3614
rfingers 7.12502
rthumb 15.3908 -19.0457
lclavicle 5.60324e-015 9.14409e-015
lhumerus -10.4573 -21.9739 88.1652
lradius 45.1218
lwrist 62.274
lhand 5.28998 24.086
lfingers 7.12502
lthumb 30.6465 51.5542
rfemur -41.7338 14.2852 3.8002
rtibia 59.3184
rfoot -18.6759 7.38165
rtoes -40.7646
lfemur -33.3894 0.0814027 -28.5383
ltibia 70.0978
lfoot -29.5999 1.05052
ltoes 26.8242
3423
root 4.84343 14.1615 10.7765 -554.351 -78.3075 550.595
lowerback 21.5709 2.60836 -6.40408
upperback -0.828571 2.11295 2.71614
thorax -13.4954 1.53158 6.0902
lowerneck -11.8103 -5.33921 -2.27212
upperneck 17.8062 -7.85168 3.72582
head 7.67116 -3.64016 0.782729
rclavicle -4.97272e-014 9.44227e-015
rhumerus -5.68105 -22.3457 -89.8387
rradius 17.8209
rwrist -36.6959
rhand -10.2419 10.902
rfingers 7.12502
rthumb 15.7507 -18.4771
lclavicle -4.97272e-014 9.44227e-015
lhumerus -10.0489 -23.7014 88.5384
lradius 45.5272
lwrist 62.9255
lhand 4.81598 23.9438
lfingers 7.12502
lthumb 30.1944 51.4956
rfemur -41.2201 14.2137 3.70026
rtibia 59.3572
rfoot -17.8266 8.89214
rtoes -32.0496
lfemur -33.5066 0.0991469 -28.5318
ltibia 70.1128
lfoot -29.6137 1.01173
ltoes 27.3758
3424
root 4.8402 14.1488 10.7689 -554.111 -78.3584 550.41
lowerback 21.5925 2.69448 -6.55688
upperback -0.871675 2.18989 2.73003
thorax -13.5792 1.58382 6.16946
lowerneck -11.6714 -5.34085 -1.82535
upperneck 17.6042 -7.84521 3.31994
head 7.54419 -3.64879 0.587428
rclavicle -3.15198e-014 1.45113e-014
rhumerus -5.70348 -20.0106 -90.2948
rradius 17.5457
rwrist -36.84
rhand -10.5212 10.6747
rfingers 7.12502
rthumb 15.4817 -18.7254
lclavicle -3.15198e-014 1.45113e-014
lhumerus -9.47233 -25.2378 89.224
lradius 45.7181
lwrist 62.9254
lhand 4.67285 23.9386
lfingers 7.12502
lthumb 30.0579 51.5154
rfemur -40.7863 14.0929 3.41025
rtibia 59.4183
rfoot -17.9652 10.2342
rtoes -28.5781
lfemur -33.5672 0.34794 -28.6907
ltibia 70.1054
lfoot -29.4142 3.07953
ltoes 21.0819
3425
root 4.83481 14.1556 10.7681 -554.78 -78.3862 551.17
lowerback 21.4967 2.61818 -6.16696
upperback -0.87401 2.17969 2.6122
thorax -13.5005 1.54212 5.80959
lowerneck -11.5322 -5.25597 -1.27766
upperneck 17.3263 -7.77868 3.13524
head 7.39704 -3.60394 0.455222
rclavicle 1.17034e-014 -2.66371e-014
rhumerus -5.57104 -18.2353 -91.0351
rradius 17.1933
rwrist -36.8927
rhand -10.2468 10.4135
rfingers 7.12502
rthumb 15.746 -18.966
lclavicle 1.17034e-014 -2.66371e-014
lhumerus -8.95617 -27.4347 89.3395
lradius 46.5223
lwrist 63.701
lhand 3.99468 23.923
lfingers 7.12502
lthumb 29.4106 51.6154
rfemur -40.1985 14.2996 3.35139
rtibia 59.3302
rfoot -18.9145 9.45639
rtoes -30.7481
lfemur -33.6478 0.0783509 -28.517
ltibia 70.1296
lfoot -29.5546 2.21415
ltoes 24.8521
3426
root 4.83137 14.1459 10.7644 -555.503 -78.3975 551.917
lowerback 21.5246 2.61177 -6.07371
upperback -0.854495 2.20672 2.72238
thorax -13.499 1.55202 5.87369
lowerneck -11.7057 -5.20981 -1.38167
upperneck 17.4544 -7.67642 3.021
head 7.46631 -3.56636 0.438841
rclavicle -9.39258e-015 1.50082e-014
rhumerus -5.7712 -15.1099 -91.5966
rradius 17.2161
rwrist -37.5153
rhand -10.2806 10.2263
rfingers 7.12502
rthumb 15.7134 -19.1558
lclavicle -9.39258e-015 1.50082e-014
lhumerus -8.40495 -29.164 89.7535
lradius 47.1454
lwrist 63.8773
lhand 4.27583 23.9207
lfingers 7.12502
lthumb 29.679 51.5656
rfemur -39.6641 14.5491 3.28367
rtibia 59.2887
rfoot -20.0277 9.02236
rtoes -33.7816
lfemur -33.778 0.170196 -28.5328
ltibia 70.063
lfoot -29.0682 4.99058
ltoes 16.8891
3427
root 4.82481 14.1522 10.7619 -556.082 -78.2358 552.46
lowerback 21.5622 2.7034 -5.82785
upperback -0.874924 2.38615 2.69333
thorax -13.5589 1.61732 5.63636
lowerneck -11.82 -5.34097 -2.04949
upperneck 17.6761 -7.87113 3.65759
head 7.6188 -3.64116 0.724396
rclavicle -3.41661e-015 -8.05078e-015
rhumerus -6.08942 -10.2599 -92.1142
rradius 17.6171
rwrist -40.0931
rhand -11.2224 10.4677
rfingers 7.12502
rthumb 14.8062 -18.9833
lclavicle -3.41661e-015 -8.05078e-015
lhumerus -7.75973 -30.7315 90.1846
lradius 47.4523
lwrist 64.1117
lhand 3.80814 24.0721
lfingers 7.12502
lthumb 29.2325 51.7956
rfemur -38.9554 15.0465 3.2227
rtibia 58.989
rfoot -19.5869 10.0158
rtoes -27.6888
lfemur -33.7113 -0.15343 -28.1309
ltibia 70.4345
lfoot -29.802 1.47534
ltoes 26.423
3428
root 4.82 14.1739 10.7555 -556.995 -78.0781 553.333
lowerback 21.5021 2.78996 -5.97083
upperback -0.822668 2.48616 2.84413
thorax -13.4941 1.67686 5.86039
lowerneck -11.8751 -5.25966 -1.67532
upperneck 17.6916 -7.77564 3.37773
head 7.60377 -3.59554 0.582232
rclavicle -3.37313e-015 1.76918e-014
rhumerus -5.86669 -9.45354 -92.7832
rradius 17.3142
rwrist -38.8666
rhand -10.8506 10.3583
rfingers 7.12502
rthumb 15.1644 -19.066
lclavicle -3.37313e-015 1.76918e-014
lhumerus -7.07957 -32.4455 90.4741
lradius 47.8385
lwrist 64.2252
lhand 4.09735 24.1768
lfingers 7.12502
lthumb 29.5086 51.8519
rfemur -38.1661 15.3689 3.42391
rtibia 58.6002
rfoot -20.5279 8.20879
rtoes -33.5675
lfemur -33.7048 -0.624208 -27.4251
ltibia 70.685
lfoot -29.952 -3.94074
ltoes 38.1336
3429
root 4.81689 14.1532 10.7466 -557.841 -78.0237 554.145
lowerback 21.5098 2.84292 -5.91378
upperback -0.757435 2.58324 2.95994
thorax -13.4409 1.71804 5.92825
lowerneck -12 -5.30135 -1.63678
upperneck 17.6825 -7.83365 3.36482
head 7.62248 -3.61877 0.562403
rclavicle 2.30093e-014 -2.98177e-015
rhumerus -6.12381 -4.15956 -93.2263
rradius 17.9425
rwrist -41.8513
rhand -10.8433 9.69228
rfingers 7.12502
rthumb 15.1715 -19.7315
lclavicle 2.30093e-014 -2.98177e-015
lhumerus -6.14809 -34.132 90.706
lradius 48.2446
lwrist 65.0138
lhand 3.37515 24.4994
lfingers 7.12502
lthumb 28.819 52.2941
rfemur -37.6526 15.6457 3.45978
rtibia 58.5399
rfoot -21.2827 8.44698
rtoes -34.9942
lfemur -33.6603 -0.144869 -27.6447
ltibia 70.6473
lfoot -30.1363 1.37389
ltoes 27.6867
3430
root 4.81198 14.1522 10.742 -558.016 -77.9458 554.372
lowerback 21.4673 2.87544 -5.93475
upperback -0.788273 2.62988 3.00016
thorax -13.4637 1.74521 5.97166
lowerneck -11.8978 -5.17728 -1.38276
upperneck 17.558 -7.68293 3.25378
head 7.54465 -3.54397 0.50631
rclavicle 7.76503e-016 3.18055e-014
rhumerus -6.89078 1.73598 -93.8505
rradius 19.5267
rwrist -46.1049
rhand -11.4703 8.67918
rfingers 7.12502
rthumb 14.5674 -20.7893
lclavicle 7.76503e-016 3.18055e-014
lhumerus -5.45053 -35.499 90.9521
lradius 48.7018
lwrist 64.9119
lhand 2.37555 24.4773
lfingers 7.12502
lthumb 27.8637 52.4308
rfemur -37.2806 15.5336 3.43282
rtibia 58.4459
rfoot -22.3682 6.36855
rtoes -38.1186
lfemur -33.7078 -0.249961 -27.5432
ltibia 70.7256
lfoot -30.1398 1.23124
ltoes 27.8175
3431
root 4.80623 14.1457 10.7363 -557.427 -77.8215 553.925
lowerback 21.3021 2.96526 -5.99867
upperback -0.862643 2.74023 2.95374
thorax -13.4743 1.80264 5.91915
lowerneck -11.9587 -5.21368 -1.75536
upperneck 17.7227 -7.74019 3.589
head 7.64026 -3.56262 0.664315
rclavicle -9.00743e-016 -4.47266e-015
rhumerus -7.04666 4.64703 -94.5405
rradius 19.7929
rwrist -46.0069
rhand -11.7424 8.72362
rfingers 7.12502
rthumb 14.3052 -20.7636
lclavicle -9.00743e-016 -4.47266e-015
lhumerus -5.04885 -37.891 90.9482
lradius 49.751
lwrist 65.3353
lhand 1.31004 24.4254
lfingers 7.12502
lthumb 26.8446 52.5397
rfemur -37.1937 15.7975 3.16939
rtibia 58.5574
rfoot -23.0312 6.12606
rtoes -38.3284
lfemur -33.8461 -0.0929052 -27.7382
ltibia 70.5516
lfoot -29.776 3.51213
ltoes 22.9991
